<svg width="19" height="19" viewBox="0 0 19 19" fill="none" xmlns="http://www.w3.org/2000/svg">
<path d="M11.3287 9.82466L10.2917 10.8142V6.33341C10.2917 6.12345 10.2082 5.92209 10.0598 5.77362C9.91131 5.62516 9.70995 5.54175 9.49998 5.54175C9.29002 5.54175 9.08866 5.62516 8.94019 5.77362C8.79172 5.92209 8.70832 6.12345 8.70832 6.33341V10.7588L7.68707 9.72966C7.53799 9.58059 7.33581 9.49684 7.12498 9.49684C6.91416 9.49684 6.71197 9.58059 6.5629 9.72966C6.41383 9.87874 6.33008 10.0809 6.33008 10.2917C6.33008 10.5026 6.41383 10.7048 6.5629 10.8538L8.9379 13.2288C9.01319 13.3009 9.10197 13.3574 9.19915 13.3951C9.29391 13.437 9.39638 13.4586 9.49998 13.4586C9.60359 13.4586 9.70605 13.437 9.80082 13.3951C9.84736 13.3763 9.89023 13.3495 9.92748 13.3159C9.97162 13.2971 10.0119 13.2703 10.0462 13.2367L12.4212 10.9726C12.5735 10.8277 12.6619 10.6283 12.6671 10.4182C12.6723 10.2081 12.5938 10.0046 12.4489 9.85237C12.3041 9.70015 12.1047 9.61171 11.8946 9.60652C11.6845 9.60132 11.481 9.67979 11.3287 9.82466Z" fill="white"/>
<path d="M9.50004 1.58325C7.93428 1.58325 6.40367 2.04756 5.10178 2.91745C3.79989 3.78735 2.78519 5.02376 2.186 6.47034C1.5868 7.91692 1.43003 9.5087 1.73549 11.0444C2.04096 12.5801 2.79495 13.9907 3.90212 15.0978C5.00928 16.205 6.4199 16.959 7.95558 17.2645C9.49126 17.5699 11.083 17.4132 12.5296 16.814C13.9762 16.2148 15.2126 15.2001 16.0825 13.8982C16.9524 12.5963 17.4167 11.0657 17.4167 9.49992C17.4167 8.46029 17.2119 7.43084 16.8141 6.47034C16.4162 5.50985 15.8331 4.63712 15.098 3.90199C14.3628 3.16686 13.4901 2.58372 12.5296 2.18587C11.5691 1.78802 10.5397 1.58325 9.50004 1.58325ZM9.50004 15.8333C8.24743 15.8333 7.02294 15.4618 5.98143 14.7659C4.93992 14.07 4.12816 13.0808 3.64881 11.9236C3.16945 10.7663 3.04403 9.49289 3.2884 8.26435C3.53278 7.0358 4.13597 5.90731 5.0217 5.02158C5.90743 4.13584 7.03593 3.53265 8.26447 3.28828C9.49302 3.04391 10.7664 3.16933 11.9237 3.64868C13.081 4.12804 14.0701 4.9398 14.766 5.98131C15.4619 7.02282 15.8334 8.2473 15.8334 9.49992C15.8334 11.1796 15.1661 12.7905 13.9784 13.9783C12.7907 15.166 11.1797 15.8333 9.50004 15.8333Z" fill="white"/>
</svg>
